<svg version="1.1" id="svg2" xml:space="preserve" viewBox="38.10533635077794 23.8110243 373.11475176803395 166.6771701" xmlns="http://www.w3.org/2000/svg" style="max-height: 500px" width="373.11475176803395" height="166.6771701"><metadata id="metadata8">image/svg+xml</metadata><defs id="defs6"/><g id="g10" transform="matrix(1.3333333,0,0,-1.3333333,0,793.7008)"><path d="m 79.7604,550.2413 -44.1692,0.9334 42.4571,-21.8035 c 0.0927,0.3444 0.1871,0.6874 0.2826,1.0301 0.0641,0.2631 0.1304,0.5253 0.199,0.7866 0.0465,0.1778 0.0941,0.3547 0.1426,0.5315 0.0762,0.2781 0.1547,0.5548 0.2358,0.8309 0.0468,0.1596 0.0947,0.3189 0.1432,0.4776 0.0901,0.2957 0.1834,0.5905 0.2789,0.8836 0.0496,0.1516 0.0998,0.3033 0.1508,0.4541 0.0992,0.2939 0.201,0.5862 0.3056,0.8773 l 0.1417,0.3886 c 0.1185,0.3206 0.2401,0.6398 0.3648,0.9573 l 0.1423,0.3572 c 0.123,0.3052 0.2489,0.6091 0.3779,0.9113 l 0.1613,0.3736 c 0.136,0.3112 0.2749,0.6205 0.4172,0.9283 l 0.0134,0.029 0.1182,0.2534 0.0053,0.0113 c 0.1542,0.328 0.3119,0.654 0.4731,0.9777 l 0.0077,0.0153 0.125,0.2489 c 0.1616,0.3194 0.3263,0.6366 0.4944,0.9518 l 0.019,0.0355 0.1315,0.2446 0.0093,0.017 c 0.1656,0.305 0.3345,0.6078 0.506,0.9088 l 0.0247,0.0437 0.138,0.2401 0.0102,0.0172 c 0.1679,0.2892 0.3388,0.5763 0.512,0.8615 l 0.172,0.2809 c 0.1866,0.3025 0.3762,0.6021 0.569,0.8997 l 0.0385,0.0595 0.1508,0.2308 c 0.18,0.2738 0.3628,0.5454 0.5482,0.815 l 0.2118,0.3058 0.0125,0.0182 z m -1.4295,-19.84 v 3e-4 c 0.0641,0.2631 0.1307,0.5253 0.199,0.7863" style="fill:#1cbdda;fill-opacity:1;fill-rule:evenodd;stroke:none" id="path12"/><path d="m 140.508,497.0761 18.7506,-9.6466 c -40.5139,-35.3415 -73.9652,0.3994 -77.5511,10.5319 -15.1135,33.2591 8.4243,65.6838 36.0454,68.0096 13.511,1.4973 28.7742,-4.6406 45.5221,-13.0079 l 0.001,-8e-4 19.5118,-10.1095 c 11.6305,-6.1056 23.3129,-12.259 33.603,-17.3716 5.8212,-5.6367 0.2134,-16.3539 -4.6109,-19.4159 l -79.8392,39.939 c -22.7945,4.69 -38.7581,-12.9415 -33.9874,-34.5974 4.267,-16.283 25.8662,-25.6314 42.5543,-14.3308" style="fill:#f97628;fill-opacity:1;fill-rule:evenodd;stroke:none" id="path14"/><path d="m 232.9064,487.9159 c -12.5768,-12.329 -34.9841,-20.9347 -58.2849,-8.3899 l -69.3235,35.6649 c -1.98,7.6368 -0.0351,14.2129 5.8337,19.0919 l 80.5221,-40.0904 c 14.1009,-3.4824 28.0307,5.0236 33.0542,17.8115 2.5118,11.6459 1.4239,25.0824 -13.0198,32.2756 -11.6614,6.0448 -23.4042,2.9755 -28.9,-1.4267 l -19.5132,10.1103 c 9.6452,9.8153 23.4108,18.0091 42.3819,15.26 17.4167,-3.0101 38.0149,-19.3277 39.843,-41.6948 0.8087,-4.7063 0.6967,-9.6196 -0.3887,-14.6582 l -2e-4,-10e-4 -0.0695,-0.288 -0.006,-0.0258 -0.0712,-0.288 -0.006,-0.0238 -0.0729,-0.288 -0.006,-0.0224 -0.0746,-0.288 -0.005,-0.0207 -0.0762,-0.288 -0.005,-0.0193 -0.078,-0.2877 -0.005,-0.0179 -0.0796,-0.2877 -0.005,-0.0161 -0.0813,-0.288 -0.004,-0.0145 -0.0833,-0.288 -0.004,-0.013 -0.085,-0.288 -0.003,-0.0116 -0.0201,-0.0664 -0.0701,-0.2318 -0.0884,-0.288 -0.003,-0.009 -0.093,-0.2953 -0.0921,-0.2883 -0.002,-0.006 -0.0944,-0.2882 -0.001,-0.004 -0.0961,-0.2886 -0.001,-0.003 -0.098,-0.2886 -6e-4,-0.002 -0.0998,-0.2888 -3e-4,-3e-4 -0.1015,-0.2877 -2e-4,-0.001 -0.1026,-0.2855 -9e-4,-0.002 -0.1037,-0.2829 -0.001,-0.004 -0.1046,-0.2807 -0.002,-0.005 -0.1051,-0.278 -0.003,-0.007 -0.1063,-0.2758 -0.003,-0.008 -0.1071,-0.2733 -0.003,-0.009 -0.1083,-0.2713 -0.004,-0.0102 -0.1091,-0.269 -0.005,-0.0116 -0.1097,-0.2668 -0.005,-0.013 -0.1109,-0.2642 -0.006,-0.0145 -0.1114,-0.2622 -0.006,-0.0156 -0.1126,-0.2602 -0.007,-0.0167 -0.1134,-0.258 -0.008,-0.0181 -0.1139,-0.256 -0.009,-0.0193 -0.1148,-0.2539 -0.009,-0.0207 -0.1157,-0.252 -0.01,-0.0219 -0.1162,-0.25 -0.0108,-0.0232 -0.117,-0.248 -0.0117,-0.0244 -0.1176,-0.2464 -0.0122,-0.0255 -0.1185,-0.2443 -0.013,-0.0267 -0.1194,-0.2426 -0.0895,-0.1803 -0.044,-0.0887 -0.0147,-0.0292 -0.1205,-0.239 -0.0156,-0.0303 -0.1213,-0.2375 -0.0162,-0.0315 -0.1218,-0.2359 -0.0171,-0.0328 -0.1227,-0.2339 -0.0179,-0.034 -0.1233,-0.2324 -0.0187,-0.0355 -0.1238,-0.2307 -0.0196,-0.0366 -0.1244,-0.229 -0.0207,-0.0377 -0.125,-0.2277 -0.0216,-0.0391 -0.1256,-0.2262 -0.0224,-0.0399 -0.1261,-0.2248 -0.0235,-0.0414 -0.1267,-0.2231 -0.1517,-0.2645 -0.0252,-0.0439 -0.1279,-0.2203 -0.026,-0.045 -0.1284,-0.2189 -0.0273,-0.0465 -0.1289,-0.2174 -0.0284,-0.0476 -0.1292,-0.2163 -0.1202,-0.1995 -0.0389,-0.0644 -0.0303,-0.0499 -0.1304,-0.2137 -0.0315,-0.0513 -0.1306,-0.2123 -0.0326,-0.0528 -0.1313,-0.2109 -0.1267,-0.2026 -0.0382,-0.0613 -0.0349,-0.0552 -0.1321,-0.2087 -0.0357,-0.0564 -0.1324,-0.2075 c -1.3212,-2.0205 -2.7967,-4.0453 -4.4314,-6.0704" style="fill:#1cbdda;fill-opacity:1;fill-rule:evenodd;stroke:none" id="path16"/><path d="m 237.3009,493.9285 c 3.6292,5.6602 6.2108,11.2221 7.8166,17.9674 l 42.5412,-21.8106 -43.6654,-0.4553 z" style="fill:#f97628;fill-opacity:1;fill-rule:evenodd;stroke:none" id="path18"/></g></svg>