<?xml version="1.0" encoding="UTF-8"?>
<svg xmlns="http://www.w3.org/2000/svg" xmlns:xlink="http://www.w3.org/1999/xlink" width="113px" height="80px" viewBox="0 0 113 80" version="1.1">
<g id="surface1">
<path style=" stroke:none;fill-rule:evenodd;fill:rgb(19.607843%,72.941178%,48.627451%);fill-opacity:1;" d="M 60.128906 2.265625 C 80.917969 2.265625 97.773438 19.136719 97.773438 39.949219 C 97.773438 60.761719 80.917969 77.632812 60.128906 77.632812 C 39.335938 77.632812 22.480469 60.761719 22.480469 39.949219 C 22.480469 19.136719 39.335938 2.265625 60.128906 2.265625 Z M 45.667969 32.902344 L 54.433594 41.546875 C 60.78125 35.285156 67.128906 29.019531 73.480469 22.757812 C 75.074219 20.992188 77.214844 19.910156 79.53125 21.429688 L 84.015625 25.714844 C 85.417969 27.160156 85.4375 29.804688 84.140625 31.269531 L 57.765625 57.757812 C 56.414062 59.074219 53.535156 59.957031 51.242188 57.800781 L 36.296875 42.730469 C 35.257812 41.789062 34.59375 39.078125 35.683594 37.433594 C 37.109375 35.964844 38.535156 34.496094 39.964844 33.027344 C 41.113281 31.882812 43.472656 31.257812 45.667969 32.902344 "/>
<path style=" stroke:none;fill-rule:evenodd;fill:rgb(3.921569%,62.7451%,43.137255%);fill-opacity:1;" d="M 84.167969 31.289062 C 85.351562 29.863281 85.589844 27.328125 84.046875 25.738281 C 87.960938 29.671875 94.042969 36.710938 97.800781 40.566406 C 98.136719 56.363281 85.125 72.652344 71.503906 75.914062 L 52.035156 58.417969 C 54.003906 59.605469 56.195312 59.414062 58.335938 57.238281 Z M 84.167969 31.289062 "/>
</g>
</svg>
